<svg width="13" height="18" viewBox="0 0 13 18" fill="none" xmlns="http://www.w3.org/2000/svg">
<path d="M1 3.66667C1 2.95942 1.28095 2.28115 1.78105 1.78105C2.28115 1.28095 2.95942 1 3.66667 1H6.33333V6.33333H3.66667C2.95942 6.33333 2.28115 6.05238 1.78105 5.55228C1.28095 5.05219 1 4.37391 1 3.66667Z" stroke="#29292E" stroke-linecap="round" stroke-linejoin="round"/>
<path d="M6.33337 1H9.00004C9.35023 1 9.69699 1.06898 10.0205 1.20299C10.3441 1.337 10.638 1.53343 10.8857 1.78105C11.1333 2.02867 11.3297 2.32264 11.4637 2.64618C11.5977 2.96971 11.6667 3.31647 11.6667 3.66667C11.6667 4.01686 11.5977 4.36362 11.4637 4.68716C11.3297 5.01069 11.1333 5.30466 10.8857 5.55228C10.638 5.79991 10.3441 5.99633 10.0205 6.13035C9.69699 6.26436 9.35023 6.33333 9.00004 6.33333H6.33337V1Z" stroke="#29292E" stroke-linecap="round" stroke-linejoin="round"/>
<path d="M6.33337 9.00001C6.33337 8.64982 6.40235 8.30306 6.53636 7.97952C6.67037 7.65599 6.8668 7.36202 7.11442 7.11439C7.36205 6.86677 7.65602 6.67034 7.97955 6.53633C8.30309 6.40232 8.64985 6.33334 9.00004 6.33334C9.35023 6.33334 9.69699 6.40232 10.0205 6.53633C10.3441 6.67034 10.638 6.86677 10.8857 7.11439C11.1333 7.36202 11.3297 7.65599 11.4637 7.97952C11.5977 8.30306 11.6667 8.64982 11.6667 9.00001C11.6667 9.3502 11.5977 9.69696 11.4637 10.0205C11.3297 10.344 11.1333 10.638 10.8857 10.8856C10.638 11.1333 10.3441 11.3297 10.0205 11.4637C9.69699 11.5977 9.35023 11.6667 9.00004 11.6667C8.64985 11.6667 8.30309 11.5977 7.97955 11.4637C7.65602 11.3297 7.36205 11.1333 7.11442 10.8856C6.8668 10.638 6.67037 10.344 6.53636 10.0205C6.40235 9.69696 6.33337 9.3502 6.33337 9.00001Z" stroke="#29292E" stroke-linecap="round" stroke-linejoin="round"/>
<path d="M1 14.3333C1 13.6261 1.28095 12.9478 1.78105 12.4477C2.28115 11.9476 2.95942 11.6667 3.66667 11.6667H6.33333V14.3333C6.33333 15.0406 6.05238 15.7188 5.55228 16.2189C5.05219 16.719 4.37391 17 3.66667 17C2.95942 17 2.28115 16.719 1.78105 16.2189C1.28095 15.7188 1 15.0406 1 14.3333Z" stroke="#29292E" stroke-linecap="round" stroke-linejoin="round"/>
<path d="M1 9.00001C1 8.29277 1.28095 7.61449 1.78105 7.11439C2.28115 6.6143 2.95942 6.33334 3.66667 6.33334H6.33333V11.6667H3.66667C2.95942 11.6667 2.28115 11.3857 1.78105 10.8856C1.28095 10.3855 1 9.70725 1 9.00001Z" stroke="#29292E" stroke-linecap="round" stroke-linejoin="round"/>
</svg>
