<svg width="15" height="16" viewBox="0 0 15 16" fill="none" xmlns="http://www.w3.org/2000/svg">
<path d="M5.66667 13.0025C2.33333 14.0013 2.33333 11.338 1 11.0051M10.3333 15V12.4233C10.3583 12.1058 10.3154 11.7866 10.2073 11.487C10.0993 11.1874 9.92862 10.9142 9.70667 10.6855C11.8 10.4525 14 9.66015 14 6.02478C13.9998 5.09519 13.6418 4.20124 13 3.52797C13.3039 2.71468 13.2824 1.81572 12.94 1.01784C12.94 1.01784 12.1533 0.784803 10.3333 2.00325C8.80534 1.58966 7.19466 1.58966 5.66667 2.00325C3.84667 0.784803 3.06 1.01784 3.06 1.01784C2.71758 1.81572 2.6961 2.71468 3 3.52797C2.35342 4.20624 1.99502 5.10826 2 6.04476C2 9.65349 4.2 10.4458 6.29333 10.7055C6.074 10.9318 5.90484 11.2018 5.79687 11.4977C5.6889 11.7937 5.64454 12.1091 5.66667 12.4233V15" stroke="#212121" stroke-linecap="round" stroke-linejoin="round"/>
</svg>
