<svg width="14" height="14" viewBox="0 0 14 14" fill="none" xmlns="http://www.w3.org/2000/svg">
<path d="M10 1H4C2.34315 1 1 2.34315 1 4V10C1 11.6569 2.34315 13 4 13H10C11.6569 13 13 11.6569 13 10V4C13 2.34315 11.6569 1 10 1Z" stroke="#212121" stroke-linecap="round" stroke-linejoin="round"/>
<path d="M9.40002 6.622C9.47407 7.12135 9.38877 7.63133 9.15627 8.07941C8.92377 8.52749 8.55591 8.89084 8.105 9.1178C7.65408 9.34476 7.14309 9.42376 6.64469 9.34356C6.14629 9.26336 5.68588 9.02805 5.32892 8.67109C4.97197 8.31414 4.73666 7.85372 4.65646 7.35533C4.57626 6.85693 4.65526 6.34593 4.88222 5.89502C5.10917 5.44411 5.47253 5.07624 5.92061 4.84374C6.36869 4.61124 6.87867 4.52595 7.37802 4.6C7.88737 4.67553 8.35893 4.91288 8.72304 5.27698C9.08714 5.64109 9.32449 6.11264 9.40002 6.622Z" stroke="#212121" stroke-linecap="round" stroke-linejoin="round"/>
<path d="M10.3 3.7H10.306" stroke="#212121" stroke-linecap="round" stroke-linejoin="round"/>
</svg>
