<svg width="15" height="14" viewBox="0 0 15 14" fill="none" xmlns="http://www.w3.org/2000/svg">
<path d="M9.84212 4.78947C10.8471 4.78947 11.811 5.18872 12.5217 5.89939C13.2323 6.61005 13.6316 7.57392 13.6316 8.57895V13H11.1053V8.57895C11.1053 8.24394 10.9722 7.92265 10.7353 7.68576C10.4984 7.44887 10.1771 7.31579 9.84212 7.31579C9.50711 7.31579 9.18582 7.44887 8.94893 7.68576C8.71204 7.92265 8.57896 8.24394 8.57896 8.57895V13H6.05264V8.57895C6.05264 7.57392 6.45189 6.61005 7.16255 5.89939C7.87322 5.18872 8.83709 4.78947 9.84212 4.78947Z" stroke="#212121" stroke-linecap="round" stroke-linejoin="round"/>
<path d="M3.52632 5.42105H1V13H3.52632V5.42105Z" stroke="#212121" stroke-linecap="round" stroke-linejoin="round"/>
<path d="M2.26316 3.52632C2.96078 3.52632 3.52632 2.96078 3.52632 2.26316C3.52632 1.56554 2.96078 1 2.26316 1C1.56554 1 1 1.56554 1 2.26316C1 2.96078 1.56554 3.52632 2.26316 3.52632Z" stroke="#212121" stroke-linecap="round" stroke-linejoin="round"/>
</svg>
